# xmcd
#
# Track frame offsets: 
#        150
#        22011
#        38138
#        61772
#        76727
#        92029
#        110328
#        122648
#        139862
#        154633
#        170595
#        185239
#        202943
#        216321
#        235247
#        252514
#
# Disc length: 3566 seconds
#
# Revision: 0
# Processed by: cddbd v1.5.2PL0 Copyright (c) Steve Scherf et al.
# Submitted via: ExactAudioCopy v0.99pb5
#
DISCID=db0dec10
DTITLE=Various Artist - Estradni hitovi na klapski nacin
DYEAR=1900
DGENRE=Country
TTITLE0=JELSA: Nase malo misto
TTITLE1=DISPET: Otoce
TTITLE2=KOLAPJANI: Trag u beskraju
TTITLE3=KORJANDUL: Da je meni s tobom kroz pasike
TTITLE4=GRDELIN: Tija bi te zaboravit
TTITLE5=CAKULONE: Zar je voljeti grijeh
TTITLE6=SAGENA: Ti samo ti
TTITLE7=KOLAPJANKE: Lose vino
TTITLE8=JELSA: Samo ovu mrvu duse
TTITLE9=DISPET: O jednoj mladosti
TTITLE10=FJAKA: Vilo moja
TTITLE11=KORJANDUL: Zelenu granu s tugom zuta voca
TTITLE12=SAGENA: Treseta
TTITLE13=CAKULONE: Prije svitanja
TTITLE14=GRDELIN: Provaj
TTITLE15=CESARICE: Sanjaj me
EXTD=
EXTT0=
EXTT1=
EXTT2=
EXTT3=
EXTT4=
EXTT5=
EXTT6=
EXTT7=
EXTT8=
EXTT9=
EXTT10=
EXTT11=
EXTT12=
EXTT13=
EXTT14=
EXTT15=
PLAYORDER=
